<?xml version="1.0" encoding="utf-8"?>
<!-- Generator: Adobe Illustrator 19.2.0, SVG Export Plug-In . SVG Version: 6.00 Build 0)  -->
<svg version="1.1" id="Layer_1" xmlns="http://www.w3.org/2000/svg" xmlns:xlink="http://www.w3.org/1999/xlink" x="0px" y="0px"
	 viewBox="0 0 129.3 104.7" width="127.691" height="103.128" style="enable-background:new 0 0 129.3 104.7;" xml:space="preserve">
<style type="text/css">
	.st0{fill:#90A1B1;}
	.st1{fill:#FFFFFF;}
	.st2{fill:#122532;}
	.st3{fill:#5B6871;}
	.st4{fill:#EDEDED;}
</style>
<polygon class="st0" points="64.5,0.8 66.9,7.9 70.1,1.1 71.6,8.4 75.6,2.1 76.3,9.6 81,3.8 80.7,11.3 86.1,6.1 84.9,13.5 90.9,9
	88.9,16.2 95.4,12.5 92.4,19.4 99.3,16.4 95.6,22.9 102.8,20.9 98.3,26.9 105.7,25.7 100.5,31.1 108,30.8 102.2,35.5 109.7,36.2
	103.4,40.2 110.7,41.7 103.9,44.9 111,47.3 103.9,49.7 110.7,52.9 103.4,54.4 109.7,58.4 102.2,59 108,63.8 100.5,63.5 105.7,68.9
	98.3,67.7 102.8,73.7 95.6,71.7 99.3,78.2 92.4,75.2 95.4,82.1 88.9,78.4 90.9,85.6 84.9,81.1 86.1,88.5 80.7,83.3 81,90.8 76.3,85
	75.6,92.5 71.6,86.1 70.1,93.5 66.9,86.7 64.5,93.8 62.1,86.7 58.9,93.5 57.4,86.1 53.4,92.5 52.8,85 48,90.8 48.3,83.3 42.9,88.5
	44.1,81.1 38.1,85.6 40.1,78.4 33.6,82.1 36.6,75.2 29.7,78.2 33.4,71.7 26.2,73.7 30.7,67.7 23.3,68.9 28.5,63.5 21,63.8 26.8,59
	19.3,58.4 25.6,54.4 18.3,52.9 25.1,49.7 18,47.3 25.1,44.9 18.3,41.7 25.6,40.2 19.3,36.2 26.8,35.5 21,30.8 28.5,31.1 23.3,25.7
	30.7,26.9 26.2,20.9 33.4,22.9 29.7,16.4 36.6,19.4 33.6,12.5 40.1,16.2 38.1,9 44.1,13.5 42.9,6.1 48.3,11.3 48,3.8 52.8,9.6
	53.4,2.1 57.4,8.4 58.9,1.1 62.1,7.9 "/>
<g>
	<path class="st1" d="M64.5,84.3c-20.2,0-36.6-16.4-36.6-36.6s16.4-36.6,36.6-36.6s36.6,16.4,36.6,36.6S84.7,84.3,64.5,84.3z
		 M64.5,20.4c-15,0-27.2,12.2-27.2,27.2s12.2,27.2,27.2,27.2s27.2-12.2,27.2-27.2S79.5,20.4,64.5,20.4z"/>
</g>
<path class="st2" d="M35.4,55.2L31.6,56l-0.4-2c-0.1-0.7,0.2-1.2,0.7-1.3c0.5-0.1,0.9,0.1,1,0.5c0-0.4,0.3-0.8,0.8-0.9
	c0.6-0.1,1.1,0.2,1.2,0.9L35.4,55.2z M32.3,53.5c-0.2,0-0.4,0.3-0.3,0.5l0.2,1l0.8-0.2l-0.2-1C32.7,53.6,32.5,53.4,32.3,53.5z
	 M33.8,53.1c-0.2,0-0.4,0.3-0.3,0.6l0.2,1l0.9-0.2l-0.2-1C34.3,53.2,34.1,53,33.8,53.1z"/>
<path class="st2" d="M34.6,50l-0.3,0c0.2,0.2,0.4,0.5,0.4,0.8c0,0.4-0.2,1-0.8,1.1c-0.7,0.1-0.9-0.4-1-0.9c0-0.4,0.1-0.7,0.3-0.9
	l-0.4,0c-0.3,0-0.4,0.3-0.4,0.7c0,0.3,0.2,0.6,0.4,0.8l-0.5,0.3c-0.3-0.3-0.5-0.7-0.6-1.2c-0.1-0.6,0.1-1.2,0.9-1.3l1.8-0.2L34.6,50
	z M33.9,50.1l-0.3,0c-0.1,0.1-0.2,0.4-0.2,0.6c0,0.3,0.2,0.5,0.5,0.5c0.3,0,0.4-0.3,0.4-0.6C34.2,50.4,34.1,50.2,33.9,50.1z"/>
<path class="st2" d="M33.1,48.9c-0.9,0-1.5-0.6-1.5-1.5c0-0.6,0.2-0.9,0.5-1.1l0.4,0.5c-0.2,0.1-0.3,0.3-0.3,0.6
	c0,0.4,0.3,0.8,0.8,0.8c0.5,0,0.8-0.3,0.8-0.8c0-0.3-0.1-0.5-0.3-0.6l0.4-0.5c0.3,0.2,0.5,0.5,0.5,1.1
	C34.5,48.3,33.9,48.9,33.1,48.9z"/>
<path class="st2" d="M34.7,44.2l-1.1,0.6l0.3,0.4l0.7,0.1L34.5,46l-3.8-0.4l0.1-0.7l2.3,0.2L31.9,44l0.1-0.9l1.2,1.2l1.6-1
	L34.7,44.2z"/>
<path class="st2" d="M35.5,43.4L35,42.9c0.3-0.2,0.4-0.4,0.5-0.8c0.1-0.3,0-0.8-0.5-0.9l-0.3-0.1c0.2,0.3,0.3,0.6,0.3,0.9
	c-0.1,0.7-0.7,1.1-1.6,0.9c-0.9-0.2-1.3-0.8-1.2-1.5c0.1-0.3,0.3-0.6,0.6-0.8l-0.4-0.1l0.1-0.7l2.6,0.5c1,0.2,1.1,1.1,1,1.7
	C36,42.7,35.8,43.1,35.5,43.4z M34.2,41.1l-0.9-0.2c-0.2,0.1-0.4,0.3-0.4,0.6c-0.1,0.4,0.1,0.7,0.6,0.8c0.5,0.1,0.8-0.1,0.9-0.5
	C34.4,41.5,34.3,41.2,34.2,41.1z"/>
<path class="st2" d="M35.5,40l-2.7-0.8l0.2-0.7l0.4,0.1c-0.2-0.3-0.3-0.6-0.2-1l0.7,0.2c0,0-0.1,0.1-0.1,0.2c-0.1,0.2,0,0.6,0.1,0.7
	l1.8,0.5L35.5,40z"/>
<path class="st2" d="M34.6,37.8c-0.7-0.3-1.2-1-0.8-1.9c0.3-0.9,1.2-1.1,1.9-0.9c0.7,0.3,1.2,1,0.8,1.9
	C36.2,37.8,35.4,38.1,34.6,37.8z M35.4,35.8c-0.4-0.2-0.8,0-1,0.4c-0.2,0.4,0.1,0.8,0.5,1c0.4,0.2,0.9,0.1,1-0.4S35.8,36,35.4,35.8z
	"/>
<path class="st2" d="M38,33.6l-0.3-0.2c0.1,0.3,0.1,0.7-0.1,1.1c-0.3,0.5-0.7,0.7-1.2,0.4L34.6,34l0.3-0.7l1.5,0.8
	c0.3,0.2,0.5,0.1,0.7-0.2c0.1-0.3,0.1-0.5,0-0.7l-1.7-0.9l0.3-0.7l2.5,1.3L38,33.6z"/>
<path class="st2" d="M39.6,30.9L38.2,30c-0.3-0.2-0.5-0.1-0.7,0.1c-0.2,0.2-0.1,0.5-0.1,0.7l1.6,1l-0.4,0.6L36.2,31l0.4-0.6l0.3,0.2
	c-0.1-0.3-0.1-0.7,0.2-1.1c0.3-0.5,0.8-0.6,1.2-0.3l1.7,1.1L39.6,30.9z"/>
<path class="st2" d="M41.5,28.4l-0.3-0.2c0.1,0.3,0,0.7-0.2,0.9c-0.4,0.5-1.2,0.6-1.9,0c-0.7-0.6-0.8-1.3-0.4-1.9
	c0.2-0.3,0.5-0.4,0.9-0.4l-1.1-0.9l0.5-0.6l3,2.4L41.5,28.4z M40.8,27.8L40,27.2c-0.2,0-0.5,0.1-0.6,0.3c-0.3,0.3-0.2,0.8,0.2,1.1
	c0.4,0.3,0.8,0.3,1.1,0C40.8,28.3,40.9,28,40.8,27.8z"/>
<path class="st2" d="M42.7,26.2l-0.1-0.8c0.4,0,0.9-0.1,1.3-0.4c0.3-0.3,0.4-0.6,0.2-0.8c-0.5-0.5-1.8,1.3-2.8,0.3
	c-0.4-0.5-0.4-1.2,0.3-1.9c0.5-0.4,1-0.6,1.5-0.6l0.1,0.8c-0.4,0-0.8,0.2-1.1,0.4c-0.3,0.2-0.3,0.5-0.1,0.7c0.4,0.5,1.8-1.3,2.7-0.3
	c0.5,0.5,0.5,1.3-0.3,2C43.8,26,43.3,26.2,42.7,26.2z"/>
<path class="st2" d="M44.8,23.2c-0.5-0.7-0.4-1.5,0.3-2.1c0.5-0.3,0.9-0.3,1.2-0.3l-0.1,0.6c-0.2-0.1-0.4,0-0.7,0.1
	c-0.4,0.3-0.4,0.7-0.1,1.1c0.3,0.4,0.7,0.5,1.1,0.2c0.2-0.2,0.3-0.4,0.3-0.6l0.7,0.1c0,0.3-0.1,0.7-0.6,1.1
	C46.1,24,45.3,23.9,44.8,23.2z"/>
<path class="st2" d="M48,22.6l-1.5-2.4l0.6-0.4l0.2,0.3c0-0.3,0.2-0.7,0.5-0.9l0.4,0.6c-0.1,0-0.1,0-0.2,0.1
	c-0.2,0.1-0.4,0.4-0.4,0.6l1,1.6L48,22.6z"/>
<path class="st2" d="M48.8,20.4c-0.4-0.7-0.1-1.6,0.6-2c0.7-0.4,1.5-0.1,1.9,0.7l0.1,0.1l-1.8,1c0.2,0.3,0.6,0.4,1,0.2
	c0.2-0.1,0.5-0.4,0.5-0.6l0.5,0.3c-0.1,0.4-0.5,0.7-0.8,0.9C50,21.5,49.2,21.2,48.8,20.4z M49.7,19c-0.4,0.2-0.4,0.6-0.3,0.9
	l1.2-0.6C50.4,19,50.1,18.8,49.7,19z"/>
<path class="st2" d="M51.6,19c-0.3-0.8,0-1.6,0.8-1.9c0.8-0.3,1.5,0.1,1.9,0.9l0.1,0.2l-1.9,0.8c0.2,0.3,0.5,0.5,1,0.3
	c0.2-0.1,0.5-0.3,0.6-0.5l0.5,0.3c-0.2,0.3-0.5,0.6-0.9,0.8C52.7,20.1,51.9,19.8,51.6,19z M52.6,17.7c-0.4,0.2-0.5,0.6-0.4,0.8
	l1.3-0.5C53.4,17.7,53.1,17.5,52.6,17.7z"/>
<path class="st2" d="M56.9,18.7L56.4,17c-0.1-0.4-0.3-0.4-0.6-0.4c-0.3,0.1-0.4,0.3-0.5,0.5l0.5,1.8l-0.7,0.2l-0.8-2.7l0.7-0.2
	l0.1,0.3c0.1-0.3,0.4-0.6,0.8-0.7c0.6-0.2,1,0.1,1.1,0.6l0.5,1.9L56.9,18.7z"/>
<path class="st2" d="M57.4,14.9c0-0.2,0.1-0.5,0.3-0.5c0.2,0,0.5,0.1,0.5,0.3c0,0.2-0.1,0.5-0.3,0.5C57.7,15.3,57.4,15.1,57.4,14.9z
	 M58.1,18.3l-0.6-2.7l0.7-0.1l0.6,2.7L58.1,18.3z"/>
<path class="st2" d="M61.3,17.8l-0.2-1.7c0-0.4-0.3-0.5-0.6-0.5c-0.3,0-0.5,0.2-0.6,0.4l0.2,1.9l-0.7,0.1l-0.4-2.8l0.7-0.1l0,0.4
	c0.2-0.2,0.5-0.5,0.9-0.6c0.6-0.1,0.9,0.2,1,0.8l0.2,2L61.3,17.8z"/>
<path class="st2" d="M62.5,18.4l0.3-0.5c0.2,0.2,0.5,0.3,0.9,0.3c0.4,0,0.8-0.2,0.8-0.7l0-0.3c-0.2,0.3-0.5,0.4-0.9,0.5
	c-0.7,0-1.2-0.5-1.3-1.4c0-0.9,0.5-1.4,1.2-1.4c0.3,0,0.6,0.1,0.9,0.4l0-0.4l0.7,0l0.1,2.6c0,1.1-0.8,1.3-1.5,1.4
	C63.2,18.8,62.9,18.7,62.5,18.4z M64.5,16.7l0-0.9c-0.1-0.2-0.4-0.3-0.6-0.3c-0.4,0-0.7,0.3-0.7,0.8c0,0.5,0.3,0.8,0.7,0.8
	C64.1,17,64.3,16.9,64.5,16.7z"/>
<path class="st2" d="M67.2,15.8c0.2-1.2,1.2-1.8,2.3-1.7c0.8,0.1,1.3,0.6,1.5,1.2l-0.7,0.2c-0.1-0.3-0.4-0.6-0.8-0.7
	c-0.7-0.1-1.3,0.4-1.4,1.1c-0.1,0.7,0.3,1.3,1,1.4c0.4,0.1,0.8-0.1,1-0.4l0.7,0.4c-0.3,0.4-0.9,0.8-1.7,0.7
	C67.8,17.9,67,17,67.2,15.8z"/>
<path class="st2" d="M70.8,18.3l0.7-2.7l0.7,0.2l-0.1,0.4c0.2-0.2,0.6-0.3,1-0.2l-0.2,0.7c0,0-0.1,0-0.2-0.1c-0.2-0.1-0.6,0-0.7,0.1
	l-0.4,1.8L70.8,18.3z"/>
<path class="st2" d="M73,17.4c0.3-0.8,1-1.2,1.8-0.9c0.8,0.3,1.1,1,0.8,1.9l-0.1,0.2l-2-0.7c-0.1,0.3,0.1,0.7,0.6,0.9
	c0.2,0.1,0.6,0.1,0.8,0l0.2,0.6c-0.3,0.2-0.8,0.1-1.2,0C73.1,19,72.7,18.3,73,17.4z M74.6,17c-0.4-0.1-0.7,0.1-0.8,0.4l1.3,0.4
	C75.2,17.6,75.1,17.2,74.6,17z"/>
<path class="st2" d="M77.3,20.5l0.1-0.3c-0.3,0.2-0.7,0.2-1,0c-0.6-0.3-0.9-1-0.5-1.8c0.4-0.8,1.1-1.1,1.7-0.8
	c0.3,0.1,0.5,0.4,0.6,0.7l0.6-1.3l0.7,0.3L78,20.8L77.3,20.5z M77.7,19.7l0.4-0.9c0-0.2-0.2-0.4-0.4-0.5c-0.4-0.2-0.8,0-1,0.5
	c-0.2,0.4-0.1,0.9,0.3,1C77.2,19.8,77.5,19.8,77.7,19.7z"/>
<path class="st2" d="M79,19.8c0.4-0.7,1.2-1,2-0.5c0.7,0.4,0.9,1.2,0.4,2l-0.1,0.1l-1.8-1c-0.1,0.3,0,0.7,0.4,1
	c0.2,0.1,0.5,0.2,0.8,0.1l0,0.6c-0.4,0.1-0.8,0-1.2-0.2C78.8,21.4,78.5,20.6,79,19.8z M80.7,19.8c-0.4-0.2-0.7,0-0.9,0.2l1.2,0.7
	C81.1,20.4,81.1,20,80.7,19.8z"/>
<path class="st2" d="M82.6,23.7l1-1.4c0.2-0.3,0.1-0.5-0.1-0.7c-0.2-0.2-0.5-0.2-0.7-0.1L81.6,23L81,22.6l1.6-2.3l0.6,0.4l-0.2,0.3
	c0.3-0.1,0.7,0,1,0.2c0.5,0.4,0.5,0.8,0.2,1.3l-1.2,1.6L82.6,23.7z"/>
<path class="st2" d="M84.1,24.1l0.9-1.1l-0.4-0.3l0.4-0.5l0.4,0.3l0.5-0.6l0.6,0.5L86.1,23l0.4,0.4l-0.4,0.5l-0.4-0.4l-0.8,1
	c-0.1,0.1-0.1,0.3,0,0.4c0.1,0.1,0.2,0.1,0.2,0.1l-0.2,0.5c-0.1,0-0.3-0.1-0.6-0.3C83.9,24.8,83.8,24.5,84.1,24.1z"/>
<path class="st2" d="M85,25.7l1.9-2l0.5,0.5l-1.9,2L85,25.7z M87.4,23.1c0.2-0.2,0.4-0.2,0.6,0c0.2,0.2,0.2,0.4,0,0.6
	c-0.2,0.2-0.4,0.2-0.6,0C87.2,23.6,87.2,23.3,87.4,23.1z"/>
<path class="st2" d="M87.1,27.9l0.2-0.2c-0.3,0-0.6-0.1-0.9-0.4c-0.3-0.3-0.4-0.9,0-1.3c0.5-0.4,1-0.2,1.3,0.1
	c0.2,0.3,0.4,0.6,0.3,0.9l0.3-0.3c0.2-0.2,0.2-0.5-0.1-0.8c-0.2-0.2-0.5-0.4-0.8-0.4l0.2-0.5c0.5,0.1,0.8,0.3,1.1,0.6
	c0.4,0.5,0.6,1.1,0,1.6l-1.3,1.2L87.1,27.9z M87.6,27.4l0.3-0.2c0-0.2-0.1-0.4-0.2-0.6c-0.2-0.2-0.5-0.3-0.7-0.1
	c-0.2,0.2-0.1,0.5,0,0.7C87.1,27.3,87.4,27.5,87.6,27.4z"/>
<path class="st2" d="M87.9,28.9l3-2.4l0.5,0.6l-3,2.4L87.9,28.9z"/>
<path class="st2" d="M88.7,30l2.3-1.6l0.4,0.6l-2.3,1.6L88.7,30z M91.6,27.9c0.2-0.1,0.5-0.1,0.6,0.1c0.1,0.2,0.1,0.5-0.1,0.6
	c-0.2,0.1-0.5,0.1-0.6-0.1C91.3,28.3,91.4,28,91.6,27.9z"/>
<path class="st2" d="M90.5,32.7l1.4-0.9c0.3-0.2,0.3-0.4,0.2-0.7c-0.1-0.2-0.4-0.4-0.6-0.4l-1.6,1l-0.4-0.6l2.4-1.4l0.4,0.6L92,30.4
	c0.3,0,0.6,0.2,0.9,0.6c0.3,0.5,0.2,1-0.3,1.2l-1.7,1L90.5,32.7z"/>
<path class="st2" d="M90.4,34l0.6,0.1c-0.1,0.3-0.1,0.6,0.1,0.9c0.1,0.3,0.5,0.6,1,0.4l0.3-0.1c-0.3-0.1-0.6-0.3-0.8-0.6
	c-0.3-0.6-0.1-1.3,0.8-1.7c0.8-0.4,1.5-0.1,1.8,0.5c0.1,0.3,0.1,0.6,0,1l0.3-0.2l0.3,0.7l-2.4,1.1c-1,0.4-1.5-0.2-1.8-0.8
	C90.4,34.8,90.3,34.5,90.4,34z M92.8,35.1l0.8-0.4c0.1-0.2,0.1-0.5,0-0.7c-0.2-0.4-0.6-0.5-1-0.3c-0.4,0.2-0.6,0.6-0.4,1
	C92.4,34.9,92.6,35,92.8,35.1z"/>
<path class="st2" d="M94.7,37.3c1.1-0.3,2.2,0.3,2.5,1.4c0.2,0.8-0.1,1.4-0.5,1.8l-0.5-0.6c0.3-0.2,0.4-0.6,0.3-1
	c-0.2-0.7-0.8-1-1.5-0.8c-0.7,0.2-1.1,0.8-0.9,1.5c0.1,0.4,0.4,0.6,0.8,0.7l-0.1,0.8c-0.5-0.1-1.1-0.5-1.4-1.3
	C93.1,38.7,93.6,37.6,94.7,37.3z"/>
<path class="st2" d="M95.3,41.2c0.8-0.1,1.5,0.3,1.7,1.2c0.2,0.9-0.4,1.6-1.2,1.7c-0.8,0.1-1.5-0.3-1.7-1.2
	C93.9,41.9,94.5,41.3,95.3,41.2z M95.6,43.3c0.4-0.1,0.8-0.4,0.7-0.8c-0.1-0.5-0.5-0.6-0.9-0.6c-0.4,0.1-0.8,0.4-0.7,0.8
	C94.8,43.2,95.2,43.4,95.6,43.3z"/>
<path class="st2" d="M94.5,46.5l0.4,0c-0.2-0.2-0.5-0.5-0.5-1c0-0.6,0.3-0.9,0.8-1l2-0.1l0,0.7l-1.7,0.1c-0.4,0-0.5,0.2-0.5,0.5
	c0,0.3,0.2,0.5,0.4,0.6l1.9-0.1l0,0.7l-2.8,0.2L94.5,46.5z"/>
<path class="st2" d="M94.5,49.7l1.7,0.1c0.4,0,0.5-0.2,0.5-0.5c0-0.3-0.1-0.5-0.3-0.6l-1.9-0.1l0-0.7l2.8,0.1l0,0.7l-0.4,0
	c0.2,0.2,0.4,0.5,0.4,1c0,0.6-0.4,0.9-0.9,0.9l-2-0.1L94.5,49.7z"/>
<path class="st2" d="M95.8,51c0.8,0.1,1.4,0.8,1.2,1.7c-0.1,0.6-0.4,0.9-0.7,1L96,53.1c0.2-0.1,0.3-0.3,0.4-0.5
	c0.1-0.4-0.2-0.8-0.7-0.9c-0.5-0.1-0.9,0.2-0.9,0.6c0,0.3,0,0.5,0.2,0.6l-0.5,0.4c-0.2-0.2-0.4-0.6-0.3-1.2
	C94.2,51.4,94.9,50.8,95.8,51z"/>
<path class="st2" d="M93.9,53.6l2.7,0.6l-0.2,0.7l-2.7-0.6L93.9,53.6z M97.4,54.3c0.2,0.1,0.4,0.3,0.3,0.5c-0.1,0.2-0.3,0.4-0.5,0.3
	c-0.2-0.1-0.4-0.3-0.3-0.5C96.9,54.4,97.1,54.3,97.4,54.3z"/>
<path class="st2" d="M93.6,55l3.7,1l-0.2,0.7l-3.7-1L93.6,55z"/>
<rect x="43.1" y="87" class="st3" width="42.4" height="11.3"/>
<path class="st4" d="M9.7,72.6c-0.3,0.1-0.6,0.2-0.9,0.2c-3.1,0.9-11.2,5.8-7,9.7c0.8,0.7,1.9,0.5,2.7,1.1c1.2,0.9,0.7,1.8,1.4,3
	c0.6,1.2,2.2,1.3,3.3,2.1c-1-1-1.3-2.6-0.8-3.9c0.9-2.4,3.7-3.7,6.1-3.6c3.7,0.1,6.2,2.3,9.3,3.9c2.8,1.5,11.8,4.7,13.9,0.6
	c0.4-0.9,0.2-1.9-0.3-2.8s-1.3-1.5-2-2c-3.1-2.4-6.4-4.7-10.1-6.2c-0.8-0.3-1.6-0.6-2.3-0.9C18.8,72.5,14.1,71.6,9.7,72.6z"/>
<path class="st4" d="M119.3,72.6c0.3,0.1,0.6,0.2,0.9,0.2c3.1,0.9,11.2,5.8,7,9.7c-0.8,0.7-1.9,0.5-2.7,1.1c-1.2,0.9-0.7,1.8-1.4,3
	c-0.6,1.2-2.2,1.3-3.3,2.1c1-1,1.3-2.6,0.8-3.9c-0.9-2.4-3.7-3.7-6.1-3.6c-3.7,0.1-6.2,2.3-9.3,3.9c-2.8,1.5-11.8,4.7-13.9,0.6
	c-0.4-0.9-0.2-1.9,0.3-2.8c0.5-0.8,1.3-1.5,2-2c3.1-2.4,6.4-4.7,10.1-6.2c0.8-0.3,1.6-0.6,2.3-0.9C110.2,72.5,114.9,71.6,119.3,72.6
	z"/>
<path class="st2" d="M46.8,49.8v-4.6c0-1-0.5-1.3-1.3-1.3c-0.8,0-1.3,0.4-1.6,0.8v5.1h-2.5v-8h2.5v1c0.5-0.6,1.4-1.2,2.8-1.2
	c1.8,0,2.6,1.1,2.6,2.5v5.6H46.8z"/>
<path class="st2" d="M55.9,49.8V49c-0.5,0.6-1.5,1-2.5,1c-1.2,0-2.7-0.8-2.7-2.6c0-1.9,1.5-2.6,2.7-2.6c1.1,0,2,0.3,2.5,0.9V45
	c0-0.7-0.6-1.2-1.6-1.2c-0.8,0-1.6,0.3-2.2,0.9l-0.9-1.8c1-0.9,2.4-1.2,3.6-1.2c1.9,0,3.7,0.7,3.7,3.2v5H55.9z M55.9,47.8v-0.7
	c-0.3-0.4-0.9-0.6-1.4-0.6c-0.7,0-1.3,0.3-1.3,0.9c0,0.6,0.6,0.9,1.3,0.9C55,48.3,55.6,48.2,55.9,47.8z"/>
<path class="st2" d="M62.8,48.9v4h-2.5v-11h2.5v0.9c0.6-0.8,1.5-1.1,2.4-1.1c2,0,3.5,1.5,3.5,4.2c0,2.7-1.5,4.2-3.5,4.2
	C64.3,50,63.4,49.7,62.8,48.9z M66.1,45.8c0-1.2-0.8-1.9-1.7-1.9c-0.5,0-1.2,0.3-1.5,0.7V47c0.3,0.4,1,0.7,1.5,0.7
	C65.3,47.8,66.1,47,66.1,45.8z"/>
<path class="st2" d="M70,49.8v-11h2.5v4c0.6-0.8,1.5-1.1,2.4-1.1c2,0,3.5,1.6,3.5,4.2c0,2.7-1.6,4.2-3.5,4.2c-0.9,0-1.7-0.4-2.4-1.1
	v0.9H70z M74,47.8c1,0,1.8-0.7,1.8-1.9c0-1.2-0.8-1.9-1.8-1.9c-0.5,0-1.2,0.3-1.5,0.7v2.4C72.8,47.5,73.5,47.8,74,47.8z"/>
<path class="st2" d="M79,48.8l1.1-1.8c0.6,0.5,1.9,1.1,2.8,1.1c0.8,0,1.1-0.2,1.1-0.6c0-1-4.6,0-4.6-3.2c0-1.4,1.2-2.6,3.4-2.6
	c1.4,0,2.5,0.4,3.3,1.1l-1,1.8c-0.5-0.5-1.4-0.9-2.3-0.9c-0.6,0-1,0.2-1,0.5c0,0.9,4.6,0,4.6,3.2c0,1.5-1.3,2.6-3.6,2.6
	C81.3,50,79.9,49.5,79,48.8z"/>
<g>
	<g>
		<path class="st2" d="M88,51.2c-0.7,0-1.4-0.6-1.4-1.4c0-0.8,0.6-1.4,1.4-1.4c0.7,0,1.4,0.6,1.4,1.4C89.3,50.6,88.7,51.2,88,51.2z
			 M88,48.7c-0.6,0-1.1,0.5-1.1,1.1c0,0.6,0.5,1.1,1.1,1.1c0.6,0,1.1-0.5,1.1-1.1C89.1,49.2,88.6,48.7,88,48.7z"/>
	</g>
	<g>
		<path class="st2" d="M87.4,49.8c0-0.2,0-0.5,0-0.7c0-0.1,0-0.1,0.1-0.1c0.2,0,0.5,0,0.7,0c0,0,0.1,0,0.1,0c0.2,0,0.3,0.1,0.3,0.3
			c0,0.2,0,0.3-0.1,0.5c0,0-0.1,0.1,0,0.1c0.1,0,0.1,0.1,0.1,0.2c0,0.1,0,0.2,0,0.3c0,0.1,0,0.1,0.1,0.2c0,0.1,0,0.1-0.1,0.1
			c-0.2,0-0.2,0-0.3-0.2c0-0.1,0-0.1,0-0.2c0-0.1-0.1-0.2-0.2-0.2c-0.1,0-0.3,0-0.4,0c-0.1,0-0.1,0-0.1,0.1c0,0.2,0,0.3,0,0.5
			c0,0.1,0,0.1-0.1,0.1c-0.2,0-0.2,0-0.2-0.2C87.4,50.2,87.4,50,87.4,49.8z M87.9,49.7c0.1,0,0.2,0,0.3,0c0.1,0,0.2-0.1,0.2-0.2
			c0-0.1-0.1-0.2-0.2-0.2c-0.1,0-0.2,0-0.3,0c-0.2,0-0.2,0-0.2,0.2c0,0.1,0,0.2,0,0.3C87.7,49.8,87.8,49.7,87.9,49.7z"/>
	</g>
</g>
<path class="st0" d="M81.7,91.4H47.3c-4.2,0-7.7-3.4-7.7-7.7v0c0-4.2,3.4-7.7,7.7-7.7h34.3c4.2,0,7.7,3.4,7.7,7.7v0
	C89.3,88,85.9,91.4,81.7,91.4z"/>
<path class="st0" d="M83.8,103.9H45.2c-3.1,0-5.6-2.5-5.6-5.6v0c0-3.1,2.5-5.6,5.6-5.6h38.6c3.1,0,5.6,2.5,5.6,5.6v0
	C89.3,101.4,86.9,103.9,83.8,103.9z"/>
<path class="st2" d="M43.3,82.9v-2.6h1.9v0.5h-1.3v0.6h1.3v0.5h-1.3v0.6h1.3v0.5H43.3z"/>
<path class="st2" d="M48,82.9v-1.2c0-0.2-0.1-0.3-0.3-0.3c-0.2,0-0.3,0.1-0.4,0.2v1.3h-0.5v-1.2c0-0.2-0.1-0.3-0.3-0.3
	c-0.2,0-0.3,0.1-0.4,0.2v1.3h-0.5V81h0.5v0.3c0.1-0.1,0.3-0.3,0.6-0.3c0.3,0,0.5,0.1,0.5,0.3c0.1-0.2,0.4-0.3,0.7-0.3
	c0.4,0,0.6,0.2,0.6,0.6v1.4H48z"/>
<path class="st2" d="M49.5,82.6v1H49V81h0.5v0.2c0.1-0.2,0.4-0.3,0.6-0.3c0.5,0,0.9,0.4,0.9,1c0,0.6-0.4,1-0.9,1
	C49.9,82.9,49.7,82.8,49.5,82.6z M50.4,81.9c0-0.3-0.2-0.6-0.5-0.6c-0.2,0-0.3,0.1-0.4,0.2v0.7c0.1,0.1,0.3,0.2,0.4,0.2
	C50.2,82.5,50.4,82.3,50.4,81.9z"/>
<path class="st2" d="M51.3,82.9v-2.6h0.5v2.6H51.3z"/>
<path class="st2" d="M52.2,81.9c0-0.5,0.4-1,1-1c0.6,0,1,0.5,1,1c0,0.5-0.4,1-1,1C52.6,82.9,52.2,82.5,52.2,81.9z M53.7,81.9
	c0-0.3-0.2-0.6-0.5-0.6c-0.3,0-0.5,0.3-0.5,0.6c0,0.3,0.2,0.6,0.5,0.6C53.5,82.5,53.7,82.2,53.7,81.9z"/>
<path class="st2" d="M54.6,83.2c0,0,0.1,0,0.2,0c0.1,0,0.2,0,0.3-0.1l0.1-0.2L54.3,81h0.5l0.5,1.3l0.5-1.3h0.5l-0.9,2.2
	c-0.1,0.4-0.4,0.5-0.7,0.5c-0.1,0-0.2,0-0.3,0L54.6,83.2z"/>
<path class="st2" d="M59,82.9v-1.2c0-0.2-0.1-0.3-0.3-0.3c-0.2,0-0.3,0.1-0.4,0.2v1.3h-0.5v-1.2c0-0.2-0.1-0.3-0.3-0.3
	c-0.2,0-0.3,0.1-0.4,0.2v1.3h-0.5V81h0.5v0.3c0.1-0.1,0.3-0.3,0.6-0.3c0.3,0,0.5,0.1,0.5,0.3c0.1-0.2,0.4-0.3,0.7-0.3
	c0.4,0,0.6,0.2,0.6,0.6v1.4H59z"/>
<path class="st2" d="M59.9,81.9c0-0.6,0.4-1,1-1c0.6,0,1,0.4,1,1.1v0.1h-1.4c0,0.2,0.2,0.4,0.6,0.4c0.2,0,0.4-0.1,0.5-0.2l0.2,0.3
	c-0.2,0.2-0.5,0.3-0.8,0.3C60.4,82.9,59.9,82.5,59.9,81.9z M60.9,81.3c-0.3,0-0.4,0.2-0.5,0.4h0.9C61.4,81.6,61.2,81.3,60.9,81.3z"
	/>
<path class="st2" d="M63.5,82.9v-1.2c0-0.3-0.1-0.4-0.4-0.4c-0.2,0-0.4,0.1-0.4,0.2v1.3h-0.5V81h0.5v0.3c0.1-0.1,0.4-0.3,0.7-0.3
	c0.4,0,0.6,0.2,0.6,0.6v1.4H63.5z"/>
<path class="st2" d="M64.6,82.4v-1h-0.3V81h0.3v-0.5h0.5V81h0.4v0.4h-0.4v0.9c0,0.1,0.1,0.2,0.2,0.2c0.1,0,0.1,0,0.2-0.1l0.1,0.4
	c-0.1,0.1-0.2,0.1-0.4,0.1C64.8,82.9,64.6,82.7,64.6,82.4z"/>
<path class="st2" d="M66.7,82.5l0.3-0.4c0.2,0.2,0.5,0.4,0.8,0.4c0.3,0,0.5-0.1,0.5-0.3c0-0.5-1.5-0.1-1.5-1.1c0-0.4,0.4-0.8,1-0.8
	c0.4,0,0.8,0.1,1,0.4L68.5,81c-0.2-0.2-0.5-0.3-0.8-0.3c-0.2,0-0.4,0.1-0.4,0.3c0,0.4,1.5,0.1,1.5,1.1c0,0.5-0.3,0.8-1.1,0.8
	C67.3,82.9,67,82.8,66.7,82.5z"/>
<path class="st2" d="M69.2,81.9c0-0.6,0.4-1,1-1c0.4,0,0.6,0.2,0.8,0.3l-0.3,0.3c-0.1-0.1-0.2-0.2-0.4-0.2c-0.3,0-0.5,0.2-0.5,0.6
	c0,0.3,0.2,0.6,0.5,0.6c0.2,0,0.3-0.1,0.4-0.2l0.3,0.3c-0.1,0.2-0.4,0.3-0.8,0.3C69.6,82.9,69.2,82.5,69.2,81.9z"/>
<path class="st2" d="M71.3,82.9V81h0.5v0.3c0.1-0.2,0.4-0.3,0.6-0.3v0.5c0,0-0.1,0-0.1,0c-0.2,0-0.4,0.1-0.5,0.2v1.3H71.3z"/>
<path class="st2" d="M72.6,81.9c0-0.6,0.4-1,1-1c0.6,0,1,0.4,1,1.1v0.1h-1.4c0,0.2,0.2,0.4,0.6,0.4c0.2,0,0.4-0.1,0.5-0.2l0.2,0.3
	c-0.2,0.2-0.5,0.3-0.8,0.3C73,82.9,72.6,82.5,72.6,81.9z M73.6,81.3c-0.3,0-0.4,0.2-0.5,0.4H74C74,81.6,73.9,81.3,73.6,81.3z"/>
<path class="st2" d="M74.8,81.9c0-0.6,0.4-1,1-1c0.6,0,1,0.4,1,1.1v0.1h-1.4c0,0.2,0.2,0.4,0.6,0.4c0.2,0,0.4-0.1,0.5-0.2l0.2,0.3
	c-0.2,0.2-0.5,0.3-0.8,0.3C75.2,82.9,74.8,82.5,74.8,81.9z M75.8,81.3c-0.3,0-0.4,0.2-0.5,0.4h0.9C76.2,81.6,76.1,81.3,75.8,81.3z"
	/>
<path class="st2" d="M78.4,82.9v-1.2c0-0.3-0.1-0.4-0.4-0.4c-0.2,0-0.4,0.1-0.4,0.2v1.3h-0.5V81h0.5v0.3c0.1-0.1,0.4-0.3,0.7-0.3
	c0.4,0,0.6,0.2,0.6,0.6v1.4H78.4z"/>
<path class="st2" d="M79.3,80.5c0-0.2,0.1-0.3,0.3-0.3c0.2,0,0.3,0.1,0.3,0.3c0,0.2-0.1,0.3-0.3,0.3C79.5,80.8,79.3,80.6,79.3,80.5z
	 M79.4,82.9V81h0.5v1.9H79.4z"/>
<path class="st2" d="M81.7,82.9v-1.2c0-0.3-0.1-0.4-0.4-0.4c-0.2,0-0.4,0.1-0.4,0.2v1.3h-0.5V81h0.5v0.3c0.1-0.1,0.4-0.3,0.7-0.3
	c0.4,0,0.6,0.2,0.6,0.6v1.4H81.7z"/>
<path class="st2" d="M82.6,83.4l0.2-0.4c0.2,0.2,0.4,0.2,0.6,0.2c0.2,0,0.5-0.1,0.5-0.5v-0.2c-0.2,0.2-0.4,0.3-0.6,0.3
	c-0.5,0-0.8-0.3-0.8-1c0-0.6,0.4-1,0.8-1c0.2,0,0.4,0.1,0.6,0.3V81h0.5v1.8c0,0.7-0.6,0.9-1,0.9C83.1,83.7,82.9,83.6,82.6,83.4z
	 M84,82.2v-0.6c-0.1-0.1-0.3-0.2-0.4-0.2c-0.3,0-0.5,0.2-0.5,0.5c0,0.3,0.2,0.5,0.5,0.5C83.7,82.4,83.9,82.3,84,82.2z"/>
<path class="st2" d="M59.7,88.3l-0.2-0.4h-1.1l-0.2,0.4h-0.6l1-2.6h0.7l1,2.6H59.7z M59,86.2l-0.4,1.1h0.8L59,86.2z"/>
<path class="st2" d="M60.6,88.8l0.2-0.4c0.2,0.2,0.4,0.2,0.6,0.2c0.2,0,0.5-0.1,0.5-0.5V88c-0.2,0.2-0.4,0.3-0.6,0.3
	c-0.5,0-0.8-0.3-0.8-1c0-0.6,0.4-1,0.8-1c0.2,0,0.4,0.1,0.6,0.3v-0.2h0.5v1.8c0,0.7-0.6,0.9-1,0.9C61.1,89.1,60.8,89,60.6,88.8z
	 M61.9,87.6V87c-0.1-0.1-0.3-0.2-0.4-0.2c-0.3,0-0.5,0.2-0.5,0.5c0,0.3,0.2,0.5,0.5,0.5C61.7,87.8,61.8,87.7,61.9,87.6z"/>
<path class="st2" d="M62.8,87.3c0-0.6,0.4-1,1-1c0.6,0,1,0.4,1,1.1v0.1h-1.4c0,0.2,0.2,0.4,0.6,0.4c0.2,0,0.4-0.1,0.5-0.2l0.2,0.3
	c-0.2,0.2-0.5,0.3-0.8,0.3C63.3,88.3,62.8,88,62.8,87.3z M63.8,86.7c-0.3,0-0.4,0.2-0.5,0.4h0.9C64.3,87,64.1,86.7,63.8,86.7z"/>
<path class="st2" d="M66.4,88.3v-1.2c0-0.3-0.1-0.4-0.4-0.4c-0.2,0-0.4,0.1-0.4,0.2v1.3h-0.5v-1.9h0.5v0.3c0.1-0.1,0.4-0.3,0.7-0.3
	c0.4,0,0.6,0.2,0.6,0.6v1.4H66.4z"/>
<path class="st2" d="M67.3,87.3c0-0.6,0.4-1,1-1c0.4,0,0.6,0.2,0.8,0.3L68.8,87c-0.1-0.1-0.2-0.2-0.4-0.2c-0.3,0-0.5,0.2-0.5,0.6
	c0,0.3,0.2,0.6,0.5,0.6c0.2,0,0.3-0.1,0.4-0.2l0.3,0.3c-0.1,0.2-0.4,0.3-0.8,0.3C67.7,88.3,67.3,87.9,67.3,87.3z"/>
<path class="st2" d="M69.4,88.6c0,0,0.1,0,0.2,0c0.1,0,0.2,0,0.3-0.1l0.1-0.2l-0.8-1.9h0.5l0.5,1.3l0.5-1.3h0.5l-0.9,2.2
	c-0.1,0.4-0.4,0.5-0.7,0.5c-0.1,0-0.2,0-0.3,0L69.4,88.6z"/>
<path class="st2" d="M52.5,98.7v-1.6h0.6v1.6c0,0.4,0.2,0.6,0.6,0.6c0.4,0,0.6-0.3,0.6-0.6v-1.6h0.6v1.6c0,0.7-0.4,1.1-1.2,1.1
	S52.5,99.4,52.5,98.7z"/>
<path class="st2" d="M56.7,99.8v-1.2c0-0.3-0.1-0.4-0.4-0.4c-0.2,0-0.4,0.1-0.4,0.2v1.3h-0.5v-1.9h0.5v0.3c0.1-0.1,0.4-0.3,0.7-0.3
	c0.4,0,0.6,0.2,0.6,0.6v1.4H56.7z"/>
<path class="st2" d="M57.7,97.4c0-0.2,0.1-0.3,0.3-0.3c0.2,0,0.3,0.1,0.3,0.3c0,0.2-0.1,0.3-0.3,0.3C57.8,97.7,57.7,97.5,57.7,97.4z
	 M57.7,99.8v-1.9h0.5v1.9H57.7z"/>
<path class="st2" d="M58.8,99.3v-1h-0.3v-0.4h0.3v-0.5h0.5v0.5h0.4v0.4h-0.4v0.9c0,0.1,0.1,0.2,0.2,0.2c0.1,0,0.1,0,0.2-0.1l0.1,0.4
	c-0.1,0.1-0.2,0.1-0.4,0.1C59,99.8,58.8,99.6,58.8,99.3z"/>
<path class="st2" d="M59.9,98.8c0-0.6,0.4-1,1-1c0.6,0,1,0.4,1,1.1V99h-1.4c0,0.2,0.2,0.4,0.6,0.4c0.2,0,0.4-0.1,0.5-0.2l0.2,0.3
	c-0.2,0.2-0.5,0.3-0.8,0.3C60.4,99.8,59.9,99.4,59.9,98.8z M60.9,98.2c-0.3,0-0.4,0.2-0.5,0.4h0.9C61.4,98.5,61.3,98.2,60.9,98.2z"
	/>
<path class="st2" d="M63.6,99.8v-0.2c-0.2,0.2-0.4,0.3-0.6,0.3c-0.5,0-0.9-0.4-0.9-1c0-0.6,0.4-1,0.9-1c0.2,0,0.4,0.1,0.6,0.3v-1
	h0.5v2.6H63.6z M63.6,99.2v-0.7c-0.1-0.1-0.3-0.2-0.4-0.2c-0.3,0-0.5,0.2-0.5,0.6c0,0.3,0.2,0.6,0.5,0.6
	C63.3,99.4,63.5,99.3,63.6,99.2z"/>
<path class="st2" d="M65.4,99.4l0.3-0.4c0.2,0.2,0.5,0.4,0.8,0.4c0.3,0,0.5-0.1,0.5-0.3c0-0.5-1.5-0.1-1.5-1.1c0-0.4,0.4-0.8,1-0.8
	c0.4,0,0.8,0.1,1,0.4l-0.3,0.4c-0.2-0.2-0.5-0.3-0.8-0.3c-0.2,0-0.4,0.1-0.4,0.3c0,0.4,1.5,0.1,1.5,1.1c0,0.5-0.3,0.9-1.1,0.9
	C66,99.8,65.7,99.7,65.4,99.4z"/>
<path class="st2" d="M68,99.3v-1h-0.3v-0.4H68v-0.5h0.5v0.5h0.4v0.4h-0.4v0.9c0,0.1,0.1,0.2,0.2,0.2c0.1,0,0.1,0,0.2-0.1l0.1,0.4
	c-0.1,0.1-0.2,0.1-0.4,0.1C68.2,99.8,68,99.6,68,99.3z"/>
<path class="st2" d="M70.4,99.8v-0.2c-0.1,0.2-0.4,0.2-0.6,0.2c-0.3,0-0.7-0.2-0.7-0.6c0-0.4,0.4-0.6,0.7-0.6c0.3,0,0.5,0.1,0.6,0.2
	v-0.3c0-0.2-0.2-0.3-0.4-0.3c-0.2,0-0.4,0.1-0.6,0.2l-0.2-0.3c0.2-0.2,0.5-0.3,0.8-0.3c0.4,0,0.8,0.2,0.8,0.7v1.2H70.4z M70.4,99.3
	v-0.2c-0.1-0.1-0.2-0.2-0.4-0.2c-0.2,0-0.4,0.1-0.4,0.3c0,0.2,0.2,0.3,0.4,0.3C70.2,99.5,70.3,99.4,70.4,99.3z"/>
<path class="st2" d="M71.5,99.3v-1h-0.3v-0.4h0.3v-0.5H72v0.5h0.4v0.4H72v0.9c0,0.1,0.1,0.2,0.2,0.2c0.1,0,0.1,0,0.2-0.1l0.1,0.4
	c-0.1,0.1-0.2,0.1-0.4,0.1C71.7,99.8,71.5,99.6,71.5,99.3z"/>
<path class="st2" d="M72.6,98.8c0-0.6,0.4-1,1-1c0.6,0,1,0.4,1,1.1V99h-1.4c0,0.2,0.2,0.4,0.6,0.4c0.2,0,0.4-0.1,0.5-0.2l0.2,0.3
	c-0.2,0.2-0.5,0.3-0.8,0.3C73.1,99.8,72.6,99.4,72.6,98.8z M73.6,98.2c-0.3,0-0.4,0.2-0.5,0.4h0.9C74.1,98.5,74,98.2,73.6,98.2z"/>
<path class="st2" d="M74.8,99.5l0.2-0.4c0.1,0.1,0.4,0.3,0.7,0.3c0.2,0,0.3-0.1,0.3-0.2c0-0.3-1.1-0.1-1.1-0.8
	c0-0.3,0.3-0.6,0.8-0.6c0.3,0,0.6,0.1,0.8,0.3l-0.2,0.3c-0.1-0.1-0.3-0.2-0.6-0.2c-0.2,0-0.3,0.1-0.3,0.2c0,0.3,1.1,0,1.1,0.8
	c0,0.3-0.3,0.6-0.8,0.6C75.3,99.8,75,99.7,74.8,99.5z"/>
<path class="st3" d="M32.7,74.6c-0.7,1-1.4,2.1-2.2,3c-0.6,0.7-1.4,1.3-1.7,2.2c-0.1,0.2-0.1,0.4-0.1,0.7c0,0.1,0,0.2,0,0.3
	c0,0.1,0.1,0.3,0.2,0.4c1.4,1.9,4.7,0.8,6.7,1.6c1.3,0.5,2.2,1.8,1.7,3.3c-0.2,0.5-0.6,0.9-1.1,1c0.5,0,1-0.3,1.3-0.7
	s0.6-0.8,0.7-1.3c0.2-0.6,0.3-1.1,0.3-1.7c0-1.9-1.1-3.7-2.4-5.1C35.6,77.8,32.2,75.3,32.7,74.6z"/>
<path class="st3" d="M96.3,74.6c0.7,1,1.4,2.1,2.2,3c0.6,0.7,1.4,1.3,1.7,2.2c0.1,0.2,0.1,0.4,0.1,0.7c0,0.1,0,0.2,0,0.3
	c0,0.1-0.1,0.3-0.2,0.4c-1.4,1.9-4.7,0.8-6.7,1.6c-1.3,0.5-2.2,1.8-1.7,3.3c0.2,0.5,0.6,0.9,1.1,1c-0.5,0-1-0.3-1.3-0.7
	S91,85.5,90.9,85c-0.2-0.6-0.3-1.1-0.3-1.7c0-1.9,1.1-3.7,2.4-5.1C93.4,77.8,96.8,75.3,96.3,74.6z"/>
<path class="st4" d="M98.2,60.7c-6.1-1.6-12.1-2.2-18.3-3L67.3,57c-1.9-0.1-3.8-0.1-5.7,0l-12.5,0.7c-6.2,0.8-12.3,1.4-18.3,3
	c-3.4,0.9-12,2.5-10.9,7.8c0.5,2.4,4.3,3.9,6.2,5.1c0.9,0.6-0.2,3.1-0.2,3.9c0,1.3,0.3,1.8,1.4,2.6c0.3,0.2,1.4,1.1,2.2,1.7V81
	c0-2,1.3-3.9,3.2-4.5c0,0,0,0,0,0c6.2-2,13.7-4,20.4-4c0.3,0,11.4-0.4,11.4-0.4s11.2,0.4,11.4,0.4c6.6,0,14.1,2,20.4,4c0,0,0,0,0,0
	c1.9,0.6,3.2,2.5,3.2,4.5v0.8c0.8-0.6,1.9-1.4,2.2-1.7c1-0.8,1.3-1.3,1.4-2.6c0-0.8-1.2-3.4-0.2-3.9c1.9-1.2,5.7-2.7,6.2-5.1
	C110.2,63.2,101.6,61.6,98.2,60.7z"/>
<path class="st2" d="M39,70.4l-0.5-0.8L36,70.2l-0.1,1l-1.8,0.5l0.7-6.9l2-0.5l4,5.7L39,70.4z M36.2,66.1L36,68.7l1.6-0.4L36.2,66.1
	z"/>
<path class="st2" d="M40.3,66.8c-0.3-2,0.9-3.6,2.9-3.9c1.5-0.3,2.5,0.5,3.1,1.2L45,65c-0.3-0.5-0.9-0.8-1.5-0.7
	c-1,0.2-1.6,1.1-1.5,2.2c0.2,1,1.1,1.7,2.1,1.5c0.6-0.1,1.1-0.6,1.2-1.2l1.5,0.4c-0.3,0.9-0.9,1.9-2.5,2.2
	C42.4,69.8,40.7,68.7,40.3,66.8z"/>
<path class="st2" d="M47.5,65.6c-0.2-2,1.2-3.5,3.2-3.7c1.6-0.2,2.5,0.6,3,1.4l-1.4,0.8c-0.3-0.5-0.9-0.9-1.5-0.8
	c-1.1,0.1-1.7,1-1.6,2.1c0.1,1.1,0.9,1.8,2,1.7c0.6-0.1,1.1-0.5,1.3-1.1l1.5,0.5c-0.3,0.9-1.1,1.9-2.6,2
	C49.3,68.7,47.7,67.5,47.5,65.6z"/>
<path class="st2" d="M58.8,67.9l-1.2-2.1l-0.9,0l0.1,2.2l-1.7,0.1l-0.3-6.5l3.3-0.1c1.4-0.1,2.3,0.9,2.4,2.1c0,1.1-0.6,1.8-1.2,2
	l1.4,2.3L58.8,67.9z M58.8,63.6c0-0.4-0.4-0.7-0.8-0.7L56.6,63l0.1,1.4l1.3-0.1C58.4,64.3,58.8,64,58.8,63.6z"/>
<path class="st2" d="M61.9,67.8l0.1-6.5l4.8,0l0,1.5l-3.1,0l0,1l3,0l0,1.5l-3,0l0,1.1l3.1,0l0,1.5L61.9,67.8z"/>
<path class="st2" d="M68,67.9l0.4-6.5l2.7,0.2c2,0.1,3.4,1.4,3.3,3.4c-0.1,2-1.7,3.2-3.7,3.1L68,67.9z M72.7,64.9
	c0.1-1-0.5-1.8-1.7-1.9L69.9,63l-0.2,3.6l1.1,0.1C71.9,66.7,72.6,65.9,72.7,64.9z"/>
<path class="st2" d="M75.4,68.4l0.6-6.5l1.7,0.2l-0.6,6.5L75.4,68.4z"/>
<path class="st2" d="M80.1,68.9l0.6-5l-1.8-0.2l0.2-1.5l5.3,0.7l-0.2,1.5l-1.8-0.2l-0.6,5L80.1,68.9z"/>
<path class="st2" d="M84.7,69.5l1.1-6.4l4.7,0.8l-0.2,1.4l-3-0.5l-0.2,1l3,0.5l-0.2,1.4l-3-0.5l-0.2,1.1l3,0.5l-0.2,1.4L84.7,69.5z"
	/>
<path class="st2" d="M90.7,70.5l1.3-6.4l2.7,0.6c2,0.4,3.2,1.9,2.8,3.9c-0.4,2-2.1,2.9-4.1,2.5L90.7,70.5z M95.8,68.2
	c0.2-1-0.2-1.9-1.4-2.1l-1-0.2l-0.7,3.5l1,0.2C94.8,69.8,95.6,69.2,95.8,68.2z"/>
</svg>
